<?xml version="1.0" standalone="no"?><!DOCTYPE svg PUBLIC "-//W3C//DTD SVG 1.1//EN" "http://www.w3.org/Graphics/SVG/1.1/DTD/svg11.dtd"><svg t="1525242912981" class="icon" style="" viewBox="0 0 1024 1024" version="1.1" xmlns="http://www.w3.org/2000/svg" p-id="1963" xmlns:xlink="http://www.w3.org/1999/xlink" width="128" height="128"><defs><style type="text/css"></style></defs><path d="M352.059799 473.129714c5.360078 8.043187 27.697829 41.995463 140.285047 202.835661l0.890277 0.89744c6.255471 8.037047 16.980743 13.403265 26.805505 13.403265 10.723226 0 21.443381-5.366218 26.805506-14.300705C595.097068 606.27106 686.239881 474.918453 689.81429 470.450698l0.89437-0.894369c18.765389-31.274284 29.484521-67.909669 29.484521-104.544031 0-109.906156-89.354074-200.154599-200.152553-200.1546-110.795409 0-200.149483 89.354074-200.149482 200.1546 0 38.423101 10.722202 75.05951 32.168653 108.117416z m167.08646-257.337973c82.207303 0 149.222603 67.0153 149.222603 149.220557 0 26.806529-7.145747 52.720735-21.444405 77.737502-5.361101 8.04114-78.633918 113.482611-126.883829 183.179996-37.525662-53.614082-118.836549-170.671101-126.879735-181.391257-15.189957-23.233144-24.125467-50.933019-24.125467-78.633918 0.89437-82.20321 67.910693-150.112879 150.110833-150.11288z" p-id="1964" fill="#ffd161"></path><path d="M519.146259 476.705146c60.762899 0 110.801549-50.036603 110.801548-110.800525 0-60.758806-50.03865-110.797455-110.801548-110.797456-60.758806 0-110.795409 50.03865-110.795409 110.797456 0 60.763922 49.142234 110.800525 110.795409 110.800525z m0-171.559331c33.063023 0 59.868529 26.806529 59.868529 59.866483 0 33.955346-26.805506 59.866483-59.868529 59.866482-33.057907 0-59.864436-26.806529-59.864436-59.866482s26.806529-59.866483 59.864436-59.866483zM943.577854 736.725204L819.377134 496.362858H716.619796l-40.209794 51.826366H788.10285l113.480564 217.131249 1.784646 1.788739c6.255471 8.04421 6.255471 18.761296 1.78874 27.694759-4.467755 8.93551-13.403265 14.302751-24.127514 14.302751H143.86406c-10.722202 0-19.657712-5.366218-24.125467-14.302751-4.467755-9.825786-3.575432-19.650549 2.679016-28.585035l0.894369-0.899487 111.692849-218.020502h126.881782l-41.996487-51.830459H203.730543L79.529823 736.725204c-16.978696 24.127514-18.765389 54.511521-5.362125 79.528288 14.297634 26.805506 40.20877 42.888809 70.588685 42.88881h737.168296c29.488615 0 56.296167-16.083304 69.698409-42.88881 11.614525-25.917276 8.93551-56.292074-8.045234-79.528288z" p-id="1965" fill="#ffd161"></path></svg>