<?xml version="1.0" standalone="no"?><!DOCTYPE svg PUBLIC "-//W3C//DTD SVG 1.1//EN" "http://www.w3.org/Graphics/SVG/1.1/DTD/svg11.dtd"><svg t="1525231978144" class="icon" style="" viewBox="0 0 1024 1024" version="1.1" xmlns="http://www.w3.org/2000/svg" p-id="2196" xmlns:xlink="http://www.w3.org/1999/xlink" width="128" height="128"><defs><style type="text/css"></style></defs><path d="M736 384h-384c-19.2 0-32 12.8-32 32s12.8 32 32 32h384c19.2 0 32-12.8 32-32s-12.8-32-32-32z m-192-320C281.6 64 64 249.6 64 480c0 108.8 44.8 211.2 128 281.6 25.6 25.6-64 198.4-64 198.4l236.8-57.6c12.8-6.4 25.6-6.4 38.4-6.4h140.8c262.4 0 480-185.6 480-416S806.4 64 544 64z m0 768C313.6 832 128 672 128 480S313.6 128 544 128 960 288 960 480 774.4 832 544 832z m128-320h-320c-19.2 0-32 12.8-32 32s12.8 32 32 32h320c19.2 0 32-12.8 32-32s-12.8-32-32-32z" p-id="2197"></path></svg>