<?xml version="1.0" standalone="no"?><!DOCTYPE svg PUBLIC "-//W3C//DTD SVG 1.1//EN" "http://www.w3.org/Graphics/SVG/1.1/DTD/svg11.dtd"><svg t="1525231537768" class="icon" style="" viewBox="0 0 1024 1024" version="1.1" xmlns="http://www.w3.org/2000/svg" p-id="1091" xmlns:xlink="http://www.w3.org/1999/xlink" width="64" height="64"><defs><style type="text/css"></style></defs><path d="M568.889 113.778v113.778l39.822 11.377c11.378 5.69 17.067 5.69 28.445 11.378l34.133 17.067 28.444-28.445 51.2-51.2 45.511 45.511 39.823 39.823-56.89 56.889-28.444 28.444L768 392.533c5.689 5.69 5.689 17.067 11.378 22.756l17.066 39.822h113.778V568.89H796.444l-11.377 39.822c-5.69 11.378-5.69 17.067-11.378 28.445l-17.067 34.133 28.445 28.444 56.889 56.89-79.645 79.644-56.889-56.89-28.444-28.444L642.844 768c-11.377 5.689-17.066 5.689-28.444 11.378l-45.511 17.066v113.778H455.11V796.444l-39.822-11.377c-5.689 0-17.067-5.69-22.756-11.378L358.4 756.622l-28.444 28.445-56.89 56.889-39.822-45.512-39.822-39.822 51.2-51.2 28.445-28.444L256 642.844c-5.689-11.377-5.689-17.066-11.378-28.444l-17.066-45.511H113.778V455.11h113.778l11.377-39.822c5.69-5.689 11.378-17.067 17.067-28.445l17.067-34.133-28.445-28.444-51.2-51.2 79.645-79.645 51.2 51.2 28.444 28.445L386.844 256c11.378-5.689 22.756-11.378 28.445-11.378l39.822-17.066V113.778H568.89m56.889-56.89H398.222v130.845L364.09 204.8l-91.022-91.022-159.29 159.289 91.023 91.022-17.067 34.133H56.89v227.556h130.844c5.69 11.378 11.378 22.755 11.378 34.133L102.4 756.622l79.644 79.645 79.645 79.644L358.4 819.2c11.378 5.689 17.067 5.689 28.444 11.378V967.11H614.4V836.267c11.378-5.69 22.756-11.378 34.133-11.378l96.711 96.711 159.29-159.289-96.712-96.711c5.69-11.378 11.378-22.756 11.378-34.133h147.911V398.222H836.267c-5.69-11.378-5.69-17.066-11.378-28.444l96.711-96.711-79.644-79.645-79.645-79.644-96.711 96.71c-11.378-5.688-22.756-11.377-34.133-11.377V56.89h-5.69z" fill="#2c2c2c" p-id="1092"></path><path d="M512 682.667c-96.711 0-170.667-73.956-170.667-170.667S415.29 341.333 512 341.333 682.667 415.29 682.667 512 608.71 682.667 512 682.667z m0-56.89c62.578 0 113.778-51.2 113.778-113.777S574.578 398.222 512 398.222 398.222 449.422 398.222 512 449.422 625.778 512 625.778z" fill="#2c2c2c" p-id="1093"></path></svg>